HIERARCHY
ROOT Hips
{
  OFFSET 0.000000 0.000000 0.000000
  CHANNELS 6 Xposition Yposition Zposition Zrotation Yrotation Xrotation
  JOINT Spine
  {
    OFFSET -0.031383 2.039826 -0.231057
    CHANNELS 3 Zrotation Yrotation Xrotation
    JOINT Spine1
    {
      OFFSET -0.003250 2.062381 -0.068782
      CHANNELS 3 Zrotation Yrotation Xrotation
      JOINT Spine2
      {
        OFFSET 0.012045 2.084311 0.039502
        CHANNELS 3 Zrotation Yrotation Xrotation
        JOINT Neck
        {
          OFFSET -0.000019 1.753182 0.180902
          CHANNELS 3 Zrotation Yrotation Xrotation
          JOINT Head
          {
            OFFSET 0.025540 1.785965 -0.106842
            CHANNELS 3 Zrotation Yrotation Xrotation
            End Site
            {
              OFFSET 0 0 0
            }
          }
        }
        JOINT LeftShoulder
        {
          OFFSET 3.096568 1.335974 -0.044144
          CHANNELS 3 Zrotation Yrotation Xrotation
          JOINT LeftArm
          {
            OFFSET 5.342980 -0.000000 -0.000000
            CHANNELS 3 Zrotation Yrotation Xrotation
            JOINT LeftForeArm
            {
              OFFSET 3.672620 -0.000000 -0.000000
              CHANNELS 3 Zrotation Yrotation Xrotation
              JOINT LeftHand
              {
                OFFSET 0.599298 -0.000000 -0.000000
                CHANNELS 3 Zrotation Yrotation Xrotation
                JOINT LeftHandIndex1
                {
                  OFFSET 0.483170 -0.000000 -0.000000
                  CHANNELS 3 Zrotation Yrotation Xrotation
                  End Site
                  {
                    OFFSET 0 0 0
                  }
                }
              }
            }
          }
        }
        JOINT RightShoulder
        {
          OFFSET -3.164597 1.322727 -0.233822
          CHANNELS 3 Zrotation Yrotation Xrotation
          JOINT RightArm
          {
            OFFSET -5.549667 -0.018343 0.033481
            CHANNELS 3 Zrotation Yrotation Xrotation
            JOINT RightForeArm
            {
              OFFSET -3.694010 -0.000000 0.000000
              CHANNELS 3 Zrotation Yrotation Xrotation
              JOINT RightHand
              {
                OFFSET -0.638113 -0.000000 0.000000
                CHANNELS 3 Zrotation Yrotation Xrotation
                JOINT RightHandIndex1
                {
                  OFFSET -0.514463 -0.000000 0.000000
                  CHANNELS 3 Zrotation Yrotation Xrotation
                  End Site
                  {
                    OFFSET 0 0 0
                  }
                }
              }
            }
          }
        }
      }
    }
  }
  JOINT LeftUpLeg
  {
    OFFSET 2.630390 -7.226944 0.000000
    CHANNELS 3 Zrotation Yrotation Xrotation
    JOINT LeftLeg
    {
      OFFSET 2.706743 -7.436721 0.000000
      CHANNELS 3 Zrotation Yrotation Xrotation
      JOINT LeftFoot
      {
        OFFSET 0.150663 -0.413945 2.090267
        CHANNELS 3 Zrotation Yrotation Xrotation
        JOINT LeftToeBase
        {
          OFFSET 0.000000 -0.000000 1.075180
          CHANNELS 3 Zrotation Yrotation Xrotation
          End Site
          {
            OFFSET 0 0 0
          }
        }
      }
    }
  }
  JOINT RightUpLeg
  {
    OFFSET -2.570232 -7.061661 0.000000
    CHANNELS 3 Zrotation Yrotation Xrotation
    JOINT RightLeg
    {
      OFFSET -2.764606 -7.595698 0.000000
      CHANNELS 3 Zrotation Yrotation Xrotation
      JOINT RightFoot
      {
        OFFSET -0.241754 -0.647854 2.197187
        CHANNELS 3 Zrotation Yrotation Xrotation
        JOINT RightToeBase
        {
          OFFSET -0.000000 -0.000000 1.148030
          CHANNELS 3 Zrotation Yrotation Xrotation
          End Site
          {
            OFFSET 0 0 0
          }
        }
      }
    }
  }
}
MOTION
Frames: 13
Frame Time: 0.00833333
9.797820 14.353400 12.279700 164.930000 -41.546400 -143.822000 -19.524300 4.498240 -87.022000 0.000000 0.000000 66.407400 -16.295600 0.000000 0.784144 0.000000 0.000000 10.442600 -1.427370 0.536034 -9.305960 0.000000 0.000000 63.357400 -19.474700 0.000000 -22.501800 0.000000 0.000000 -29.672600 1.529300 -2.446450 23.832800 -1.900470 -3.828090 7.109740 -1.825510 -2.200890 -5.647140 -8.870370 -14.773100 -0.949458 9.883830 -10.788400 -1.032060 -0.000000 -0.000000 0.000000 76.131500 -65.213900 13.115700 0.000000 0.000000 86.191300 57.683800 0.000000 -27.148400 0.000000 0.000000 7.125020 -0.000000 -0.000000 0.000000 -72.321600 -15.189200 25.697800 0.000000 0.000000 130.998000 5.148140 0.000000 -13.592200 0.000000 0.000000 7.125020
9.788970 14.303800 12.266300 165.124000 -40.913600 -144.118000 -19.728400 5.127310 -87.042600 0.000000 0.000000 66.931900 -16.427400 0.000000 0.297373 0.000000 0.000000 10.223100 -1.431300 1.810760 -9.237270 0.000000 0.000000 63.550500 -19.755600 0.000000 -22.706600 0.000000 0.000000 -29.157900 1.138070 -2.367710 23.417300 -1.686470 -3.819950 7.267310 -1.397210 -2.203310 -5.229150 -9.484370 -14.594900 -1.841400 9.918740 -10.620700 -0.768595 -0.000000 -0.000000 0.000000 77.088100 -64.121100 12.309400 0.000000 0.000000 86.340800 57.379600 0.000000 -26.681100 0.000000 0.000000 7.125020 -0.000000 -0.000000 0.000000 -74.114500 -16.475100 27.859000 0.000000 0.000000 129.794000 7.467320 0.000000 -17.053700 0.000000 0.000000 7.125020
9.758440 14.257500 12.295800 164.855000 -40.683700 -144.510000 -19.752400 4.837920 -86.885800 0.000000 0.000000 67.579700 -16.247400 0.000000 0.110637 0.000000 0.000000 12.323200 -1.410090 3.429860 -8.541930 0.000000 0.000000 63.572000 -20.925100 0.000000 -22.377000 0.000000 0.000000 -29.773600 1.619330 -2.391820 23.921600 -1.858340 -3.759380 7.220080 -1.849680 -2.177730 -5.569000 -8.868780 -14.626600 -1.970760 9.729770 -10.643400 -0.821034 -0.000000 -0.000000 0.000000 70.563000 -66.371800 20.217400 0.000000 0.000000 85.195600 60.785200 0.000000 -26.903300 0.000000 0.000000 7.125020 -0.000000 -0.000000 0.000000 -76.231700 -19.317700 29.194200 0.000000 0.000000 129.247000 6.414520 0.000000 -15.909100 0.000000 0.000000 7.125020
9.724670 14.276300 12.300900 164.954000 -40.394400 -144.802000 -19.784300 4.867100 -86.497500 0.000000 0.000000 67.884200 -16.279400 0.000000 -0.374322 0.000000 0.000000 11.276400 -2.371110 2.157650 -8.500670 0.000000 0.000000 63.476500 -19.687400 0.000000 -21.658100 0.000000 0.000000 -30.759600 2.242910 -1.792710 23.981400 -2.269430 -2.837790 6.958930 -2.910560 -1.724640 -5.882870 -6.378860 -15.005700 -0.796866 9.317160 -10.999600 -1.556070 -0.000000 0.000000 0.000000 66.993400 -70.412200 23.244500 0.000000 0.000000 84.694100 56.885400 0.000000 -33.406400 0.000000 0.000000 7.125020 -0.000000 0.000000 0.000000 -77.535200 -23.228100 29.031600 0.000000 0.000000 128.944000 8.173720 0.000000 -17.746600 0.000000 0.000000 7.125020
9.679230 14.286400 12.305200 165.105000 -40.190200 -145.132000 -19.595700 4.809160 -86.380700 0.000000 0.000000 68.345400 -16.064600 0.000000 -0.750739 0.000000 0.000000 10.082500 -2.506900 2.552460 -8.197330 0.000000 0.000000 63.303000 -19.448600 0.000000 -21.570100 0.000000 0.000000 -30.661600 2.419420 -2.319520 24.026100 -2.005840 -3.459850 6.956780 -2.541770 -2.027980 -5.942820 -7.011250 -14.627400 -2.122290 9.128020 -10.654600 -1.067820 0.000000 -0.000000 0.000000 68.577600 -69.255800 21.194400 0.000000 0.000000 84.456000 55.122500 0.000000 -35.593800 0.000000 0.000000 7.125020 0.000000 -0.000000 0.000000 -79.523800 -23.177500 30.731700 0.000000 0.000000 128.255000 8.906660 0.000000 -17.612400 0.000000 0.000000 7.125020
9.645430 14.275700 12.315400 165.185000 -39.881100 -145.412000 -19.537000 4.814770 -86.211500 0.000000 0.000000 68.701100 -15.860000 0.000000 -1.122390 0.000000 0.000000 10.254500 -2.730050 3.033700 -7.957040 0.000000 0.000000 63.183900 -19.186600 0.000000 -21.597900 0.000000 0.000000 -30.469500 2.561710 -2.502200 24.125100 -1.875100 -3.647720 6.895910 -2.420160 -2.120000 -6.070350 -7.075500 -14.425700 -2.953850 8.920220 -10.458700 -0.821704 0.000000 0.000000 0.000000 70.313400 -68.562100 18.940600 0.000000 0.000000 84.746500 54.115800 0.000000 -35.800800 0.000000 0.000000 7.125020 0.000000 0.000000 0.000000 -80.985600 -23.984200 31.657700 0.000000 0.000000 127.606000 8.986270 0.000000 -17.221000 0.000000 0.000000 7.125020
9.619670 14.262300 12.324500 165.139000 -39.490000 -145.595000 -19.645600 4.887700 -86.085200 0.000000 0.000000 69.137600 -15.732500 0.000000 -1.529030 0.000000 0.000000 11.166500 -3.032070 3.466840 -7.778360 0.000000 0.000000 63.126500 -19.462600 0.000000 -21.426800 0.000000 0.000000 -30.486900 2.389680 -2.014350 24.199900 -1.827140 -3.014000 6.592030 -2.446950 -1.805080 -6.390920 -5.757320 -14.503500 -1.450980 8.772960 -10.584400 -1.579170 0.000000 0.000000 0.000000 72.348500 -69.834200 16.552000 0.000000 0.000000 85.183200 53.336900 0.000000 -36.126400 0.000000 0.000000 7.125020 0.000000 0.000000 0.000000 -81.235800 -26.455400 31.386500 0.000000 0.000000 127.096000 8.292490 0.000000 -17.311300 0.000000 0.000000 7.125020
9.590730 14.249500 12.324200 165.296000 -39.255200 -145.941000 -19.573300 5.013610 -85.930300 0.000000 0.000000 69.555200 -15.672500 0.000000 -1.783570 0.000000 0.000000 12.314900 -2.746680 4.464640 -7.441700 0.000000 0.000000 63.008900 -20.411900 0.000000 -20.986600 0.000000 0.000000 -30.642200 2.120510 -2.603940 24.328800 -1.339920 -3.810920 6.617090 -1.521050 -2.190510 -6.429450 -6.766770 -13.975900 -2.573960 8.737230 -10.155100 -1.183770 0.000000 -0.000000 0.000000 76.303700 -65.987000 12.413200 0.000000 0.000000 86.787100 60.722000 0.000000 -28.588400 0.000000 0.000000 7.125020 0.000000 -0.000000 0.000000 -82.304600 -25.159200 32.782700 0.000000 0.000000 126.580000 6.548260 0.000000 -17.339200 0.000000 0.000000 7.125020
9.565220 14.212900 12.327200 165.732000 -39.137200 -146.514000 -19.249000 5.259430 -85.939500 0.000000 0.000000 70.073700 -15.659200 0.000000 -1.791850 0.000000 0.000000 14.687200 -1.683540 6.555440 -6.975530 0.000000 0.000000 62.937400 -22.075100 0.000000 -20.914800 0.000000 0.000000 -30.558600 2.243860 -2.988350 24.523500 -0.926088 -4.234370 6.510620 -1.001100 -2.393430 -6.639430 -7.711480 -13.523600 -2.872170 8.822340 -9.777300 -0.962702 -0.000000 -0.000000 0.000000 77.708100 -65.610100 10.280500 0.000000 0.000000 85.785500 79.432500 0.000000 -39.448600 0.000000 0.000000 7.125020 -0.000000 -0.000000 0.000000 -82.738800 -24.350200 33.165400 0.000000 0.000000 126.256000 5.736500 0.000000 -18.119400 0.000000 0.000000 7.125020
9.525540 14.231200 12.323700 165.932000 -38.946100 -146.885000 -19.224600 5.398650 -85.671300 0.000000 0.000000 70.427600 -15.671700 0.000000 -2.050560 0.000000 0.000000 15.909900 -2.334310 5.470370 -6.815120 0.000000 0.000000 62.687700 -21.154200 0.000000 -20.425200 0.000000 0.000000 -31.335300 2.327560 -3.225240 24.660300 -0.661120 -4.480360 6.353430 -0.672230 -2.507520 -6.874860 -8.191940 -13.110100 -3.042310 8.762930 -9.424630 -0.834829 -0.000000 0.000000 0.000000 78.584200 -65.167200 9.034000 0.000000 0.000000 86.212300 79.914800 0.000000 -39.140500 0.000000 0.000000 7.125020 -0.000000 0.000000 0.000000 -82.785700 -24.063600 33.109400 0.000000 0.000000 125.733000 6.093950 0.000000 -19.103800 0.000000 0.000000 7.125020
9.487370 14.227100 12.320200 165.829000 -38.647800 -147.008000 -19.504600 5.497430 -85.548700 0.000000 0.000000 70.861200 -15.532600 0.000000 -2.630940 0.000000 0.000000 14.147600 -2.858340 5.221660 -6.570740 0.000000 0.000000 62.518200 -20.968100 0.000000 -20.035300 0.000000 0.000000 -32.026600 2.212070 -3.433570 24.765600 -0.485857 -4.752170 6.238340 -0.321896 -2.633210 -7.040820 -8.286160 -12.761800 -3.355640 8.597220 -9.140070 -0.799061 -0.000000 0.000000 0.000000 81.937000 -65.088900 4.255440 0.000000 0.000000 88.379100 60.815800 0.000000 -34.084200 0.000000 0.000000 7.125020 -0.000000 0.000000 0.000000 -82.835400 -23.860300 33.254300 0.000000 0.000000 125.305000 5.193020 0.000000 -19.334400 0.000000 0.000000 7.125020
9.457720 14.216100 12.320100 165.695000 -38.277100 -147.118000 -19.857200 5.680580 -85.447800 0.000000 0.000000 71.239700 -15.385300 0.000000 -3.172690 0.000000 0.000000 12.574500 -3.233180 5.464500 -6.369500 0.000000 0.000000 62.395800 -21.091100 0.000000 -19.687200 0.000000 0.000000 -32.558700 1.950850 -3.520890 24.888500 -0.336113 -4.919690 6.214290 0.049277 -2.711680 -7.100800 -8.368020 -12.520400 -3.522930 8.582610 -8.975340 -0.851298 -0.000000 -0.000000 0.000000 82.232100 -64.649300 3.670740 0.000000 0.000000 88.503400 62.095300 0.000000 -34.751900 0.000000 0.000000 7.125020 -0.000000 -0.000000 0.000000 -83.003000 -23.707800 33.639700 0.000000 0.000000 124.918000 4.274790 0.000000 -19.930500 0.000000 0.000000 7.125020
9.428930 14.193100 12.327100 165.617000 -37.898200 -147.277000 -20.139300 5.874890 -85.384000 0.000000 0.000000 71.637200 -15.381500 0.000000 -3.430030 0.000000 0.000000 12.702500 -3.594220 5.812970 -6.212320 0.000000 0.000000 62.392800 -21.107200 0.000000 -19.627500 0.000000 0.000000 -32.174400 1.752520 -3.461430 24.933500 -0.213533 -4.892560 6.250700 0.287859 -2.700640 -7.056400 -8.293770 -12.448600 -3.395370 8.609820 -8.953030 -0.997585 -0.000000 0.000000 0.000000 82.305500 -64.488200 3.864260 0.000000 0.000000 88.210000 61.822400 0.000000 -35.256900 0.000000 0.000000 7.125020 -0.000000 0.000000 0.000000 -83.406400 -24.034600 34.247300 0.000000 0.000000 124.286000 4.244980 0.000000 -20.503200 0.000000 0.000000 7.125020
